<svg xmlns="http://www.w3.org/2000/svg" width="211" height="57" viewBox="0 0 211 57" version="1.1"><path d="M 61.425 11.334 C 61.144 12.067, 61.046 16.455, 61.207 21.084 L 61.500 29.500 69.250 29.792 C 76.482 30.065, 77 29.948, 77 28.042 C 77 26.258, 76.368 26, 72 26 C 67.667 26, 67 25.733, 67 24 C 67 22.296, 67.667 22, 71.500 22 C 75.333 22, 76 21.704, 76 20 C 76 18.296, 75.333 18, 71.500 18 C 67.667 18, 67 17.704, 67 16 C 67 14.267, 67.667 14, 72 14 C 76.333 14, 77 13.733, 77 12 C 77 10.177, 76.333 10, 69.469 10 C 64.114 10, 61.789 10.385, 61.425 11.334 M 89 12.799 C 89 15.384, 88.744 15.568, 85.662 15.209 C 81.092 14.675, 79 16.965, 79 22.500 C 79 28.545, 80.760 30, 88.071 30 L 94 30 94 20 L 94 10 91.500 10 C 89.429 10, 89 10.480, 89 12.799 M 116.174 12.314 C 112.984 15.710, 113.066 24.774, 116.314 27.826 C 119.621 30.932, 126.846 30.857, 129.826 27.686 C 131.022 26.413, 132 24.838, 132 24.186 C 132 22.428, 126.935 22.749, 124.847 24.638 C 123.372 25.973, 122.757 26.043, 121.519 25.016 C 119.476 23.320, 119.540 16.627, 121.615 14.905 C 122.996 13.758, 123.488 13.885, 125.025 15.782 C 127.330 18.629, 132 18.823, 132 16.073 C 132 10.544, 120.421 7.794, 116.174 12.314 M 134 20 L 134 30 136.948 30 C 139.798 30, 139.905 29.827, 140.198 24.759 C 140.431 20.709, 140.897 19.443, 142.250 19.186 C 143.747 18.901, 144 19.659, 144 24.427 C 144 29.953, 144.026 30, 147 30 C 149.991 30, 150 29.983, 150 24.155 C 150 17.149, 147.931 14.490, 143.039 15.208 C 140.265 15.615, 140 15.407, 140 12.827 C 140 10.353, 139.626 10, 137 10 L 134 10 134 20 M 96.453 16.076 C 95.457 17.688, 96.944 27.709, 98.354 28.879 C 99.029 29.439, 102.376 29.884, 105.791 29.868 L 112 29.838 112 22.419 L 112 15 109 15 C 106.026 15, 106 15.047, 106 20.573 C 106 25.341, 105.747 26.099, 104.250 25.814 C 102.897 25.557, 102.431 24.291, 102.198 20.241 C 101.922 15.467, 101.683 15, 99.507 15 C 98.193 15, 96.819 15.484, 96.453 16.076 M 153.655 16.829 C 151.107 19.644, 151.647 20.311, 156 19.727 C 158.200 19.432, 160.251 19.598, 160.559 20.095 C 160.866 20.593, 159.741 21, 158.059 21 C 155.150 21, 151 23.898, 151 25.929 C 151 28.462, 154.280 29.894, 160.019 29.867 L 166 29.838 166 23.454 C 166 18.166, 165.668 16.893, 164.066 16.035 C 160.973 14.380, 155.493 14.798, 153.655 16.829 M 169 22.596 C 169 29.785, 169.071 30, 171.448 30 C 173.690 30, 173.921 29.566, 174.198 24.829 C 174.613 17.717, 176.798 17.247, 177.195 24.185 C 177.480 29.152, 177.680 29.521, 180.250 29.816 C 182.959 30.128, 183 30.049, 183 24.566 C 183 20.285, 183.346 19, 184.500 19 C 185.652 19, 186 20.278, 186 24.500 C 186 29.990, 186.006 30, 189.116 30 L 192.233 30 191.815 23.432 C 191.559 19.416, 190.876 16.541, 190.057 16.035 C 189.320 15.580, 184.281 15.204, 178.859 15.200 L 169 15.193 169 22.596 M 194 25.147 L 194 35.133 196.750 34.816 C 198.719 34.590, 199.591 33.861, 199.820 32.250 C 200.066 30.516, 200.795 30, 202.998 30 C 207.092 30, 209 27.616, 209 22.500 C 209 16.475, 207.314 15.098, 199.981 15.133 L 194 15.162 194 25.147 M 85 22.500 C 85 26.213, 87.237 27.431, 88.416 24.359 C 89.292 22.077, 88.153 19, 86.433 19 C 85.462 19, 85 20.129, 85 22.500 M 199.545 20.859 C 198.770 23.299, 199.854 26, 201.607 26 C 202.532 26, 203 24.825, 203 22.500 C 203 18.676, 200.599 17.536, 199.545 20.859 M 157 25 C 157 25.550, 157.648 26, 158.441 26 C 159.234 26, 160.160 25.550, 160.500 25 C 160.840 24.450, 160.191 24, 159.059 24 C 157.927 24, 157 24.450, 157 25 M 62 43.500 L 62 49 66 49 C 68.200 49, 70 48.550, 70 48 C 70 47.450, 68.875 47, 67.500 47 C 66.125 47, 65 46.550, 65 46 C 65 45.450, 66.125 45, 67.500 45 C 68.875 45, 70 44.550, 70 44 C 70 43.450, 68.875 43, 67.500 43 C 65.944 43, 65 42.433, 65 41.500 C 65 40.567, 65.944 40, 67.500 40 C 68.875 40, 70 39.550, 70 39 C 70 38.450, 68.200 38, 66 38 L 62 38 62 43.500 M 76 39.430 C 76 40.217, 74.987 41.005, 73.750 41.180 C 71.906 41.442, 71.500 42.132, 71.500 45 C 71.500 48.323, 71.690 48.516, 75.250 48.810 L 79 49.121 79 43.560 C 79 39.284, 78.653 38, 77.500 38 C 76.675 38, 76 38.644, 76 39.430 M 106.704 40.024 C 106.413 41.138, 106.606 43.613, 107.134 45.524 C 108.023 48.744, 108.385 49, 112.047 49 C 115.992 49, 116 48.992, 116 45 C 116 42.111, 115.583 41, 114.500 41 C 113.455 41, 113 42.052, 113 44.469 C 113 47.141, 112.656 47.805, 111.500 47.362 C 109.683 46.664, 109.512 43.394, 111.250 42.583 C 112.250 42.117, 112.250 41.883, 111.250 41.417 C 110.563 41.096, 110 40.196, 110 39.417 C 110 37.240, 107.302 37.737, 106.704 40.024 M 113 39 C 113 39.550, 113.675 40, 114.500 40 C 115.325 40, 116 39.550, 116 39 C 116 38.450, 115.325 38, 114.500 38 C 113.675 38, 113 38.450, 113 39 M 139.345 39.543 C 139.019 40.392, 139.018 41.351, 139.341 41.675 C 139.665 41.998, 139.464 43.133, 138.895 44.195 C 137.283 47.208, 139.493 49, 144.822 49 C 148.280 49, 149.118 48.718, 148.247 47.847 C 147.453 47.053, 147.402 46.117, 148.082 44.847 C 148.844 43.424, 148.718 43, 147.535 43 C 146.691 43, 146 43.477, 146 44.059 C 146 44.641, 145.528 44.826, 144.951 44.470 C 144.233 44.026, 144.269 43.381, 145.063 42.424 C 145.702 41.655, 145.963 40.345, 145.643 39.513 C 144.884 37.534, 140.107 37.557, 139.345 39.543 M 153.425 39.334 C 153.118 40.135, 153.009 42.524, 153.183 44.645 C 153.493 48.421, 153.582 48.500, 157.486 48.500 C 160.488 48.500, 161.556 48.068, 161.810 46.750 C 162.015 45.682, 161.533 45, 160.573 45 C 159.708 45, 159 45.450, 159 46 C 159 46.550, 158.325 47, 157.500 47 C 156.452 47, 156 45.944, 156 43.500 C 156 41.056, 156.452 40, 157.500 40 C 158.325 40, 159 40.450, 159 41 C 159 41.550, 159.708 42, 160.573 42 C 161.531 42, 162.017 41.316, 161.815 40.250 C 161.378 37.944, 154.257 37.167, 153.425 39.334 M 80 43.418 C 80 47.919, 80.989 49, 85.107 49 C 87.319 49, 89 48.515, 89 47.878 C 89 47.083, 89.422 47.105, 90.445 47.954 C 92.269 49.468, 96.196 48.946, 96.802 47.109 C 97.149 46.056, 96.621 45.878, 94.630 46.378 C 92.434 46.929, 92 46.702, 92 45 C 92 43.298, 92.434 43.071, 94.630 43.622 C 96.621 44.122, 97.149 43.944, 96.802 42.891 C 96.196 41.054, 92.269 40.532, 90.445 42.046 C 89.422 42.895, 89 42.917, 89 42.122 C 89 39.726, 86.117 41.130, 85.816 43.673 C 85.356 47.566, 83 47.909, 83 44.083 C 83 42.009, 82.509 41, 81.500 41 C 80.580 41, 80 41.935, 80 43.418 M 98.733 41.750 C 98.522 42.163, 98.263 43.962, 98.158 45.750 C 97.974 48.909, 98.081 49, 101.984 49 C 105.565 49, 106 48.738, 106 46.582 C 106 42.458, 104.943 41, 101.952 41 C 100.393 41, 98.945 41.337, 98.733 41.750 M 117.414 42.363 C 117.099 43.184, 116.990 44.900, 117.171 46.177 C 117.444 48.102, 118.099 48.500, 121 48.500 C 124.333 48.500, 124.500 48.333, 124.500 45 C 124.500 41.781, 124.239 41.475, 121.243 41.186 C 119.059 40.976, 117.798 41.363, 117.414 42.363 M 126 44.940 C 126 47.882, 126.413 49, 127.500 49 C 128.500 49, 129 48, 129 46 C 129 44.350, 129.450 43, 130 43 C 130.550 43, 131 44.350, 131 46 C 131 48.052, 131.493 49, 132.560 49 C 133.752 49, 134.047 48.114, 133.810 45.250 C 133.517 41.704, 133.296 41.483, 129.750 41.190 L 126 40.879 126 44.940 M 163.414 42.363 C 163.099 43.184, 162.990 44.900, 163.171 46.177 C 163.444 48.102, 164.099 48.500, 167 48.500 C 170.333 48.500, 170.500 48.333, 170.500 45 C 170.500 41.781, 170.239 41.475, 167.243 41.186 C 165.059 40.976, 163.798 41.363, 163.414 42.363 M 172.190 44.750 C 172.483 48.296, 172.704 48.517, 176.250 48.810 L 180 49.121 180 45.060 C 180 42.118, 179.587 41, 178.500 41 C 177.500 41, 177 42, 177 44 C 177 45.650, 176.550 47, 176 47 C 175.450 47, 175 45.650, 175 44 C 175 41.948, 174.507 41, 173.440 41 C 172.248 41, 171.953 41.886, 172.190 44.750 M 181 45.063 C 181 47.896, 181.421 49, 182.500 49 C 183.500 49, 184 48, 184 46 C 184 42.761, 185.911 41.983, 187.919 44.403 C 188.809 45.475, 188.796 45.901, 187.865 46.212 C 187.194 46.435, 186.977 47.154, 187.382 47.809 C 188.290 49.279, 193.644 49.386, 194.530 47.951 C 194.976 47.230, 195.600 47.253, 196.534 48.028 C 197.280 48.647, 198.927 49.006, 200.195 48.827 C 202.100 48.557, 202.500 47.893, 202.500 45 C 202.500 41.940, 202.160 41.461, 199.797 41.188 C 197.925 40.972, 196.699 41.510, 195.807 42.938 C 194.183 45.538, 193.029 45.606, 193.694 43.063 C 194.157 41.290, 193.637 41.125, 187.600 41.125 L 181 41.125 181 45.063 M 204.713 41.621 C 203.371 42.962, 204 44.694, 206.250 45.852 L 208.500 47.011 206.132 46.400 C 204.406 45.956, 203.886 46.158, 204.215 47.145 C 204.463 47.890, 205.979 48.500, 207.583 48.500 C 210.250 48.500, 210.500 48.200, 210.500 45 C 210.500 41.997, 210.139 41.458, 207.963 41.204 C 206.567 41.041, 205.104 41.229, 204.713 41.621 M 74 45 C 74 46.100, 74.450 47, 75 47 C 75.550 47, 76 46.100, 76 45 C 76 43.900, 75.550 43, 75 43 C 74.450 43, 74 43.900, 74 45 M 120 45 C 120 46.100, 120.450 47, 121 47 C 121.550 47, 122 46.100, 122 45 C 122 43.900, 121.550 43, 121 43 C 120.450 43, 120 43.900, 120 45 M 166 45 C 166 46.100, 166.450 47, 167 47 C 167.550 47, 168 46.100, 168 45 C 168 43.900, 167.550 43, 167 43 C 166.450 43, 166 43.900, 166 45 M 141 46 C 141 46.550, 141.702 47, 142.559 47 C 143.416 47, 143.840 46.550, 143.500 46 C 143.160 45.450, 142.459 45, 141.941 45 C 141.423 45, 141 45.450, 141 46" stroke="none" fill="#040404" fill-rule="evenodd"/><path d="M 18.455 6.455 C 15.283 9.626, 15.107 15.420, 18.086 18.591 L 20.171 20.811 18.086 21.473 C 15.552 22.277, 15.328 23.986, 17.750 24.035 C 18.712 24.055, 20.558 24.658, 21.852 25.375 C 23.822 26.468, 24.916 26.423, 28.602 25.097 C 33.428 23.362, 34.033 22.463, 31.018 21.506 C 29.071 20.888, 29.069 20.842, 30.935 18.840 C 33.709 15.862, 34.263 12.410, 32.511 9.021 C 29.626 3.441, 22.727 2.182, 18.455 6.455 M 3 25.624 C 3 26.670, 4.012 27.970, 5.250 28.513 C 7.184 29.361, 7.542 30.378, 7.798 35.750 C 8.078 41.631, 7.943 42.069, 5.509 43.178 C 1.246 45.120, 2.790 47.370, 8.999 48.264 C 12.012 48.697, 16.311 49.940, 18.554 51.026 C 20.796 52.112, 22.939 53, 23.316 53 C 23.692 53, 24 47.575, 24 40.944 L 24 28.888 19.363 26.837 C 16.813 25.709, 12.088 24.546, 8.863 24.254 C 3.581 23.775, 3 23.911, 3 25.624 M 36 24.620 C 35.175 24.900, 32.587 25.813, 30.250 26.647 L 26 28.165 26 40.583 C 26 47.412, 26.243 53, 26.540 53 C 26.837 53, 28.860 52.092, 31.037 50.981 C 33.213 49.871, 37.133 48.684, 39.747 48.343 C 44.499 47.724, 47 46.529, 47 44.878 C 47 44.395, 46.395 44, 45.655 44 C 42.652 44, 40.879 40.376, 41.194 34.884 C 41.454 30.346, 41.873 29.363, 44 28.307 C 47.988 26.327, 47.088 24.525, 42 24.306 C 39.525 24.199, 36.825 24.340, 36 24.620 M 0.709 30.624 C -0.382 31.715, -0.131 40.801, 1.009 41.506 C 1.564 41.848, 2.936 41.838, 4.058 41.481 C 5.822 40.922, 6.058 40.132, 5.799 35.667 C 5.549 31.346, 5.166 30.452, 3.459 30.208 C 2.336 30.047, 1.099 30.235, 0.709 30.624 M 43.709 30.624 C 42.378 31.956, 42.961 39.723, 44.487 40.989 C 47.456 43.453, 49.129 41.426, 48.803 35.761 C 48.549 31.347, 48.171 30.453, 46.459 30.208 C 45.336 30.047, 44.099 30.235, 43.709 30.624" stroke="none" fill="#3484e4" fill-rule="evenodd"/></svg>