<?xml version="1.0" encoding="UTF-8"?>
<!DOCTYPE svg PUBLIC "-//W3C//DTD SVG 1.1//EN" "http://www.w3.org/Graphics/SVG/1.1/DTD/svg11.dtd">
<svg xmlns="http://www.w3.org/2000/svg" version="1.1" width="211px" height="57px" style="shape-rendering:geometricPrecision; text-rendering:geometricPrecision; image-rendering:optimizeQuality; fill-rule:evenodd; clip-rule:evenodd" xmlns:xlink="http://www.w3.org/1999/xlink">
<g><path style="opacity:0.86" fill="#4b1864" d="M 20.5,3.5 C 31.7292,3.2172 35.2292,8.2172 31,18.5C 30.2496,19.1258 29.4162,19.6258 28.5,20C 30.4211,20.3603 32.0878,21.1936 33.5,22.5C 30.3872,23.5559 27.3872,24.8892 24.5,26.5C 21.4902,25.1644 18.4902,23.8311 15.5,22.5C 16.6651,21.4164 17.9984,20.5831 19.5,20C 13.1418,14.1754 13.4752,8.67537 20.5,3.5 Z"/></g>
<g><path style="opacity:0.878" fill="#000000" d="M 60.5,9.5 C 65.8333,9.5 71.1667,9.5 76.5,9.5C 76.5,10.8333 76.5,12.1667 76.5,13.5C 73.1667,13.5 69.8333,13.5 66.5,13.5C 66.5,14.8333 66.5,16.1667 66.5,17.5C 69.5,17.5 72.5,17.5 75.5,17.5C 75.5,18.8333 75.5,20.1667 75.5,21.5C 72.5,21.5 69.5,21.5 66.5,21.5C 66.5,22.8333 66.5,24.1667 66.5,25.5C 69.8333,25.5 73.1667,25.5 76.5,25.5C 76.5,26.8333 76.5,28.1667 76.5,29.5C 71.1667,29.5 65.8333,29.5 60.5,29.5C 60.5,22.8333 60.5,16.1667 60.5,9.5 Z"/></g>
<g><path style="opacity:0.909" fill="#000000" d="M 88.5,9.5 C 90.1667,9.5 91.8333,9.5 93.5,9.5C 93.5,16.1667 93.5,22.8333 93.5,29.5C 80.8856,33.2137 76.219,28.8804 79.5,16.5C 82.128,14.3673 84.9613,14.034 88,15.5C 88.4955,13.5273 88.6621,11.5273 88.5,9.5 Z M 84.5,18.5 C 88.1394,19.1118 89.1394,21.1118 87.5,24.5C 86.675,25.3857 85.675,25.719 84.5,25.5C 84.5,23.1667 84.5,20.8333 84.5,18.5 Z"/></g>
<g><path style="opacity:0.844" fill="#000000" d="M 117.5,9.5 C 120.85,9.33499 124.183,9.50166 127.5,10C 130.539,11.5771 131.872,14.0771 131.5,17.5C 129.396,17.7989 127.396,17.4656 125.5,16.5C 124.062,13.1771 122.229,12.8438 120,15.5C 119.333,18.1667 119.333,20.8333 120,23.5C 121.974,26.1183 123.807,25.9517 125.5,23C 127.473,22.5045 129.473,22.3379 131.5,22.5C 131.572,25.5217 130.238,27.6884 127.5,29C 114.866,31.3054 110.366,26.1387 114,13.5C 115.376,12.2949 116.542,10.9616 117.5,9.5 Z"/></g>
<g><path style="opacity:0.851" fill="#000000" d="M 133.5,9.5 C 135.5,9.5 137.5,9.5 139.5,9.5C 139.338,11.5273 139.505,13.5273 140,15.5C 143.039,14.034 145.872,14.3673 148.5,16.5C 149.439,20.7649 149.772,25.0983 149.5,29.5C 147.5,29.5 145.5,29.5 143.5,29.5C 143.665,26.1501 143.498,22.8168 143,19.5C 142,18.1667 141,18.1667 140,19.5C 139.502,22.8168 139.335,26.1501 139.5,29.5C 137.5,29.5 135.5,29.5 133.5,29.5C 133.5,22.8333 133.5,16.1667 133.5,9.5 Z"/></g>
<g><path style="opacity:0.865" fill="#000000" d="M 95.5,14.5 C 97.5,14.5 99.5,14.5 101.5,14.5C 101.335,17.5184 101.502,20.5184 102,23.5C 102.71,24.9733 103.876,25.6399 105.5,25.5C 105.5,21.8333 105.5,18.1667 105.5,14.5C 107.5,14.5 109.5,14.5 111.5,14.5C 111.5,19.5 111.5,24.5 111.5,29.5C 107.305,29.0523 102.972,28.8856 98.5,29C 96.9963,27.5093 96.1629,25.676 96,23.5C 95.502,20.5184 95.3354,17.5184 95.5,14.5 Z"/></g>
<g><path style="opacity:0.859" fill="#000000" d="M 154.5,14.5 C 157.518,14.3354 160.518,14.502 163.5,15C 164,15.5 164.5,16 165,16.5C 165.499,20.8206 165.666,25.1539 165.5,29.5C 161.062,29.2854 156.562,28.952 152,28.5C 149.621,24.971 150.454,22.471 154.5,21C 156.5,20.6667 158.5,20.3333 160.5,20C 159.975,19.3076 159.308,18.8076 158.5,18.5C 152.006,20.4517 150.672,19.1184 154.5,14.5 Z M 157.5,23.5 C 158.376,23.3691 159.043,23.7025 159.5,24.5C 157.192,25.8734 156.525,25.5401 157.5,23.5 Z"/></g>
<g><path style="opacity:0.856" fill="#000000" d="M 168.5,14.5 C 175.596,14.8474 182.596,15.014 189.5,15C 190.126,15.7504 190.626,16.5838 191,17.5C 191.499,21.4862 191.666,25.4862 191.5,29.5C 189.5,29.5 187.5,29.5 185.5,29.5C 185.823,25.774 185.489,22.1073 184.5,18.5C 183.914,18.7093 183.414,19.0426 183,19.5C 182.502,22.8168 182.335,26.1501 182.5,29.5C 180.5,29.5 178.5,29.5 176.5,29.5C 176.823,25.774 176.489,22.1073 175.5,18.5C 174.914,18.7093 174.414,19.0426 174,19.5C 173.502,22.8168 173.335,26.1501 173.5,29.5C 171.833,29.5 170.167,29.5 168.5,29.5C 168.5,24.5 168.5,19.5 168.5,14.5 Z"/></g>
<g><path style="opacity:0.872" fill="#000000" d="M 193.5,14.5 C 206.84,11.0037 211.34,15.6703 207,28.5C 204.619,29.435 202.119,29.7683 199.5,29.5C 199.5,31.1667 199.5,32.8333 199.5,34.5C 197.5,34.5 195.5,34.5 193.5,34.5C 193.5,27.8333 193.5,21.1667 193.5,14.5 Z M 199.5,18.5 C 200.5,18.5 201.5,18.5 202.5,18.5C 202.5,20.8333 202.5,23.1667 202.5,25.5C 200.41,25.5499 199.077,24.5499 198.5,22.5C 199.246,21.2638 199.579,19.9305 199.5,18.5 Z"/></g>
<g><path style="opacity:0.863" fill="#4b1864" d="M 2.5,23.5 C 9.55596,22.9311 16.2226,24.2644 22.5,27.5C 23.4979,35.8068 23.8312,44.1401 23.5,52.5C 16.8516,49.4198 9.8516,47.4198 2.5,46.5C 2.16667,45.8333 1.83333,45.1667 1.5,44.5C 6.39774,43.2109 8.39774,40.0442 7.5,35C 8.56215,29.9049 6.56215,27.4049 1.5,27.5C 1.43255,26.0413 1.76589,24.7079 2.5,23.5 Z"/></g>
<g><path style="opacity:0.859" fill="#4b1864" d="M 35.5,23.5 C 38.8499,23.335 42.1832,23.5017 45.5,24C 46.3366,25.0113 46.67,26.1779 46.5,27.5C 41.672,27.7634 39.672,30.4301 40.5,35.5C 39.8887,40.2129 41.8887,42.8796 46.5,43.5C 46.67,44.8221 46.3366,45.9887 45.5,47C 41.4686,47.4807 37.4686,48.1473 33.5,49C 30.6907,50.7411 27.6907,51.9078 24.5,52.5C 24.3336,44.4931 24.5003,36.4931 25,28.5C 28.4568,26.5263 31.9568,24.8596 35.5,23.5 Z"/></g>
<g><path style="opacity:0.863" fill="#4b1864" d="M -0.5,40.5 C -0.5,37.1667 -0.5,33.8333 -0.5,30.5C 4.40793,28.3983 6.40793,30.0649 5.5,35.5C 6.40793,40.9351 4.40793,42.6017 -0.5,40.5 Z"/></g>
<g><path style="opacity:0.849" fill="#4b1864" d="M 43.5,29.5 C 45.1667,29.5 46.8333,29.5 48.5,29.5C 48.6653,33.1817 48.4986,36.8484 48,40.5C 46.5421,41.7468 45.0421,41.7468 43.5,40.5C 42.2418,36.7897 42.2418,33.123 43.5,29.5 Z"/></g>
<g><path style="opacity:0.759" fill="#383938" d="M 61.5,37.5 C 64.2469,37.1866 66.9135,37.52 69.5,38.5C 67.9547,39.4519 66.288,39.7852 64.5,39.5C 64.5,40.5 64.5,41.5 64.5,42.5C 71.0486,42.9071 71.0486,43.9071 64.5,45.5C 66.1667,46.1667 67.8333,46.8333 69.5,47.5C 66.9135,48.48 64.2469,48.8134 61.5,48.5C 61.5,44.8333 61.5,41.1667 61.5,37.5 Z"/></g>
<g><path style="opacity:0.778" fill="#383938" d="M 75.5,37.5 C 76.5,37.5 77.5,37.5 78.5,37.5C 78.5,41.1667 78.5,44.8333 78.5,48.5C 71.8929,50.251 69.3929,47.9177 71,41.5C 72.3561,40.6198 73.8561,40.2865 75.5,40.5C 75.5,39.5 75.5,38.5 75.5,37.5 Z M 73.5,42.5 C 74.5862,42.62 75.2528,43.2867 75.5,44.5C 75.1667,45.1667 74.8333,45.8333 74.5,46.5C 73.5713,45.3112 73.238,43.9778 73.5,42.5 Z"/></g>
<g><path style="opacity:0.698" fill="#383938" d="M 105.5,42.5 C 106.038,40.8828 106.371,39.2161 106.5,37.5C 107.5,37.5 108.5,37.5 109.5,37.5C 109.5,38.5 109.5,39.5 109.5,40.5C 111.5,40.5 113.5,40.5 115.5,40.5C 115.5,43.1667 115.5,45.8333 115.5,48.5C 112.813,48.6641 110.146,48.4974 107.5,48C 106.891,46.0517 106.224,44.2184 105.5,42.5 Z M 111.5,41.5 C 112.451,42.9187 112.784,44.5853 112.5,46.5C 111.5,46.5 110.5,46.5 109.5,46.5C 109.365,44.4458 110.032,42.7791 111.5,41.5 Z"/></g>
<g><path style="opacity:0.578" fill="#383938" d="M 112.5,37.5 C 113.675,37.281 114.675,37.6143 115.5,38.5C 113.948,39.7979 112.948,39.4646 112.5,37.5 Z"/></g>
<g><path style="opacity:0.729" fill="#383938" d="M 139.5,37.5 C 145.209,36.6779 146.543,38.5112 143.5,43C 144.682,44.6783 145.848,44.5117 147,42.5C 148.286,43.35 148.119,44.5166 146.5,46C 147.167,46.6667 147.833,47.3333 148.5,48C 145.118,48.8236 141.784,48.657 138.5,47.5C 137.39,45.5041 137.724,43.6708 139.5,42C 138.272,40.5098 138.272,39.0098 139.5,37.5 Z M 140.5,44.5 C 142.337,44.6395 142.67,45.3061 141.5,46.5C 140.702,46.0431 140.369,45.3764 140.5,44.5 Z"/></g>
<g><path style="opacity:0.686" fill="#383938" d="M 153.5,37.5 C 155.857,37.3367 158.19,37.5034 160.5,38C 161.337,39.0113 161.67,40.1779 161.5,41.5C 159.5,40.8333 157.5,40.1667 155.5,39.5C 155.5,41.8333 155.5,44.1667 155.5,46.5C 157.5,45.8333 159.5,45.1667 161.5,44.5C 161.67,45.8221 161.337,46.9887 160.5,48C 152.15,48.8884 149.816,45.3884 153.5,37.5 Z"/></g>
<g><path style="opacity:0.688" fill="#383938" d="M 105.5,42.5 C 105.5,44.5 105.5,46.5 105.5,48.5C 102.289,48.988 99.456,48.3213 97,46.5C 94.282,49.0701 91.6153,49.0701 89,46.5C 86.4781,48.6621 83.6447,48.9955 80.5,47.5C 79.6258,45.2534 79.2924,42.9201 79.5,40.5C 80.5,40.5 81.5,40.5 82.5,40.5C 83.1667,48.5 83.8333,48.5 84.5,40.5C 86.451,40.2267 87.951,40.8934 89,42.5C 91.6153,39.9299 94.282,39.9299 97,42.5C 99.8815,39.8752 102.715,39.8752 105.5,42.5 Z M 91.5,42.5 C 100.122,43.031 100.455,44.3643 92.5,46.5C 91.5713,45.3112 91.238,43.9778 91.5,42.5 Z"/></g>
<g><path style="opacity:0.723" fill="#383938" d="M 117.5,40.5 C 124.158,39.3445 126.158,41.8445 123.5,48C 116.75,49.4689 114.75,46.9689 117.5,40.5 Z M 119.5,42.5 C 120.586,42.62 121.253,43.2867 121.5,44.5C 121.167,45.1667 120.833,45.8333 120.5,46.5C 119.571,45.3112 119.238,43.9778 119.5,42.5 Z"/></g>
<g><path style="opacity:0.75" fill="#383938" d="M 125.5,40.5 C 132.5,38.8333 135.167,41.5 133.5,48.5C 132.5,48.5 131.5,48.5 130.5,48.5C 129.833,40.5 129.167,40.5 128.5,48.5C 127.5,48.5 126.5,48.5 125.5,48.5C 125.5,45.8333 125.5,43.1667 125.5,40.5 Z"/></g>
<g><path style="opacity:0.723" fill="#383938" d="M 163.5,40.5 C 170.158,39.3445 172.158,41.8445 169.5,48C 162.75,49.4689 160.75,46.9689 163.5,40.5 Z M 165.5,42.5 C 166.586,42.62 167.253,43.2867 167.5,44.5C 167.167,45.1667 166.833,45.8333 166.5,46.5C 165.571,45.3112 165.238,43.9778 165.5,42.5 Z"/></g>
<g><path style="opacity:0.758" fill="#383938" d="M 171.5,40.5 C 172.5,40.5 173.5,40.5 174.5,40.5C 175.167,48.5 175.833,48.5 176.5,40.5C 177.5,40.5 178.5,40.5 179.5,40.5C 179.5,43.1667 179.5,45.8333 179.5,48.5C 172.5,50.1667 169.833,47.5 171.5,40.5 Z"/></g>
<g><path style="opacity:0.7" fill="#383938" d="M 194.5,42.5 C 197.82,39.535 200.653,39.8683 203,43.5C 204.755,40.3782 207.255,39.7116 210.5,41.5C 210.5,42.1667 210.5,42.8333 210.5,43.5C 209.167,43.8333 209.167,44.1667 210.5,44.5C 210.5,45.8333 210.5,47.1667 210.5,48.5C 208.167,48.5 205.833,48.5 203.5,48.5C 204.633,43.5703 203.966,43.4036 201.5,48C 198.937,48.9181 196.77,48.4181 195,46.5C 192.085,49.1345 189.252,49.1345 186.5,46.5C 187.025,45.8076 187.692,45.3076 188.5,45C 187.347,43.117 185.681,42.2837 183.5,42.5C 183.5,44.5 183.5,46.5 183.5,48.5C 182.5,48.5 181.5,48.5 180.5,48.5C 180.5,45.8333 180.5,43.1667 180.5,40.5C 183.979,40.9931 187.313,40.9931 190.5,40.5C 192.355,40.3402 193.688,41.0069 194.5,42.5 Z M 194.5,42.5 C 194.483,44.0281 193.816,44.5281 192.5,44C 193.044,43.2828 193.711,42.7828 194.5,42.5 Z"/></g>
</svg>
